<svg xmlns="http://www.w3.org/2000/svg" width="142" height="142" viewBox="0 0 142 142">
    <g fill="none" fill-rule="evenodd">
        <g>
            <g>
                <g transform="translate(-736 -151) translate(373 151) translate(363)">
                    <circle cx="71" cy="71" r="71" fill="#EDEDED"/>
                    <g fill="#616161" fill-rule="nonzero">
                        <path d="M51.285 41.796c5.56-4.22 9.19-10.986 9.19-18.629C60.476 10.429 50.436 0 38 0 25.642 0 15.524 10.35 15.524 23.167c0 7.643 3.63 14.41 9.191 18.63C10.272 47.368 0 61.698 0 78.496 0 80.407 1.545 82 3.398 82c1.854 0 3.399-1.592 3.399-3.503 0-17.753 13.98-32.163 31.203-32.163 17.224 0 31.203 14.41 31.203 32.163 0 1.91 1.545 3.503 3.399 3.503C74.455 82 76 80.408 76 78.497c0-16.798-10.272-31.128-24.715-36.7zM22.32 23.167C22.321 14.25 29.35 7.006 38 7.006s15.679 7.244 15.679 16.161c0 8.916-7.029 16.161-15.679 16.161s-15.679-7.245-15.679-16.161z" transform="translate(31 32)"/>
                    </g>
                </g>
            </g>
        </g>
    </g>
</svg>
