<svg xmlns="http://www.w3.org/2000/svg" width="24" height="24" viewBox="0 0 24 24">
    <g fill="none" fill-rule="evenodd">
        <g>
            <g>
                <g>
                    <g>
                        <path d="M0 0H24V24H0z" transform="translate(-8.000000, -222.000000) translate(8.000000, 66.000000) translate(0.000000, 154.000000) translate(0.000000, 2.000000)"/>
                        <g fill="#000" fill-opacity=".1" fill-rule="nonzero">
                            <g>
                                <path d="M10.7 0L10.7 2.736 13.436 2.736z" transform="translate(-8.000000, -222.000000) translate(8.000000, 66.000000) translate(0.000000, 154.000000) translate(0.000000, 2.000000) translate(5.000000, 4.000000)"/>
                                <path d="M9.333 0v3.37c0 .242.241.439.539.439H14v9.58c0 .888-.886 1.611-1.974 1.611H1.974C.886 15 0 14.277 0 13.389V1.61C0 .723.886 0 1.974 0h7.36zM4.851 6.851c-1.135 1.136-1.135 2.967 0 4.102.929.928 2.32 1.086 3.423.49L9.832 13 11 11.832l-1.558-1.558c.588-1.102.44-2.494-.489-3.423-1.135-1.135-2.975-1.135-4.102 0zM7.777 8.02c.488.489.488 1.268 0 1.757-.49.488-1.277.488-1.757 0-.49-.49-.49-1.277 0-1.757.489-.49 1.276-.49 1.757 0z" transform="translate(-8.000000, -222.000000) translate(8.000000, 66.000000) translate(0.000000, 154.000000) translate(0.000000, 2.000000) translate(5.000000, 4.000000)"/>
                            </g>
                        </g>
                    </g>
                </g>
            </g>
        </g>
    </g>
</svg>
