<svg xmlns="http://www.w3.org/2000/svg" width="24" height="24" viewBox="0 0 24 24">
    <defs>
        <filter id="4i8k6ekq2a" color-interpolation-filters="auto">
            <feColorMatrix in="SourceGraphic" values="0 0 0 0 0.000000 0 0 0 0 0.000000 0 0 0 0 0.000000 0 0 0 0.100000 0"/>
        </filter>
    </defs>
    <g fill="none" fill-rule="evenodd">
        <g>
            <g>
                <g>
                    <g filter="url(#4i8k6ekq2a)" transform="translate(-8.000000, -258.000000) translate(8.000000, 66.000000) translate(0.000000, 190.000000) translate(0.000000, 2.000000)">
                        <g>
                            <path fill="#000" fill-rule="nonzero" d="M10.91 4.364c1.206 0 2.174-.975 2.174-2.182C13.084.975 12.116 0 10.909 0 9.702 0 8.727.975 8.727 2.182c0 1.207.975 2.182 2.182 2.182zm-5.82 0c1.208 0 2.175-.975 2.175-2.182C7.265.975 6.298 0 5.091 0 3.884 0 2.909.975 2.909 2.182c0 1.207.975 2.182 2.182 2.182zm0 1.454C3.397 5.818 0 6.67 0 8.364v1.818h10.182V8.364c0-1.695-3.397-2.546-5.091-2.546zm5.82 0c-.212 0-.452.015-.706.037.843.61 1.432 1.432 1.432 2.509v1.818H16V8.364c0-1.695-3.396-2.546-5.09-2.546z" transform="translate(4.000000, 7.000000)"/>
                        </g>
                    </g>
                </g>
            </g>
        </g>
    </g>
</svg>
