<svg xmlns="http://www.w3.org/2000/svg" width="24" height="24" viewBox="0 0 24 24">
    <g fill="none" fill-rule="evenodd">
        <g>
            <g>
                <g>
                    <path d="M0 0L24 0 24 24 0 24z" transform="translate(-8.000000, -114.000000) translate(8.000000, 66.000000) translate(0.000000, 48.000000)"/>
                    <g fill-rule="nonzero">
                        <path fill="#D51067" d="M10.7 0L10.7 2.736 13.436 2.736z" transform="translate(-8.000000, -114.000000) translate(8.000000, 66.000000) translate(0.000000, 48.000000) translate(5.000000, 4.000000)"/>
                        <path fill="#D51067" d="M9.872 3.809c-.298 0-.539-.197-.539-.44V0H1.974C.886 0 0 .723 0 1.611V13.39C0 14.277.886 15 1.974 15h10.052C13.114 15 14 14.277 14 13.389v-9.58H9.872z" transform="translate(-8.000000, -114.000000) translate(8.000000, 66.000000) translate(0.000000, 48.000000) translate(5.000000, 4.000000)"/>
                        <path fill="#FFF" d="M7.23 11.573c.054 0 .1-.019.137-.056.037-.037.056-.083.056-.136v-.552c.373-.043.698-.135.976-.276.277-.141.492-.328.644-.56.152-.232.228-.503.228-.812 0-.315-.068-.575-.204-.78-.136-.205-.347-.375-.632-.508-.286-.133-.655-.25-1.108-.352-.326-.085-.586-.165-.78-.24-.195-.075-.335-.161-.42-.26-.086-.099-.128-.223-.128-.372 0-.224.086-.39.26-.496.173-.107.404-.16.692-.16.282 0 .512.059.688.176.176.117.277.259.304.424.026.059.061.099.104.12.042.021.088.032.136.032h.744c.053 0 .094-.017.124-.052.029-.035.044-.073.044-.116-.006-.192-.072-.39-.2-.596-.128-.205-.315-.388-.56-.548-.246-.16-.55-.267-.912-.32v-.568c0-.053-.019-.099-.056-.136-.038-.037-.083-.056-.136-.056h-.488c-.054 0-.099.019-.136.056-.038.037-.056.083-.056.136v.552c-.528.064-.942.24-1.24.528-.299.288-.448.637-.448 1.048 0 .32.068.584.204.792.136.208.34.38.612.516.272.136.605.252 1 .348.346.085.626.167.84.244.213.077.369.163.468.256.098.093.148.217.148.372 0 .219-.094.392-.28.52-.187.128-.472.192-.856.192-.24 0-.44-.032-.6-.096-.16-.064-.284-.145-.372-.244-.088-.099-.151-.199-.188-.3-.022-.043-.051-.079-.088-.108-.038-.03-.088-.044-.152-.044h-.712c-.048 0-.09.016-.124.048-.035.032-.052.072-.052.12.01.235.085.46.224.676.138.216.344.4.616.552.272.152.605.247 1 .284v.56c0 .053.018.099.056.136.037.037.082.056.136.056h.488z" transform="translate(-8.000000, -114.000000) translate(8.000000, 66.000000) translate(0.000000, 48.000000) translate(5.000000, 4.000000)"/>
                    </g>
                </g>
            </g>
        </g>
    </g>
</svg>
