<svg xmlns="http://www.w3.org/2000/svg" width="24" height="24" viewBox="0 0 24 24">
    <g fill="none" fill-rule="evenodd">
        <g>
            <g>
                <g>
                    <g>
                        <path d="M0 0H24V24H0z" transform="translate(-8.000000, -186.000000) translate(8.000000, 66.000000) translate(0.000000, 118.000000) translate(0.000000, 2.000000)"/>
                        <g fill="#000" fill-opacity=".1" fill-rule="nonzero">
                            <path d="M12.075 0H1.925C.863 0 0 .822 0 1.833v12.334C0 15.178.863 16 1.925 16h10.15C13.137 16 14 15.178 14 14.167V1.833C14 .822 13.137 0 12.075 0zm-6.24 13.04c.22.22.22.576 0 .796-.11.11-.254.164-.398.164-.144 0-.288-.055-.397-.165l-.54-.54-.54.54c-.11.11-.253.165-.397.165-.144 0-.288-.055-.397-.165-.22-.22-.22-.576 0-.796l.539-.539-.54-.54c-.22-.22-.22-.576 0-.795.22-.22.576-.22.795 0l.54.54.54-.54c.22-.22.576-.22.795 0 .22.22.22.576 0 .795l-.54.54.54.54zm-.397-3.977h-.375v.374c0 .311-.252.563-.563.563-.31 0-.563-.252-.563-.563v-.374h-.374C3.252 9.063 3 8.81 3 8.5c0-.31.252-.563.563-.563h.374v-.375c0-.31.252-.562.563-.562.31 0 .563.252.563.563v.375h.375c.31 0 .562.252.562.562 0 .31-.252.563-.563.563zm5 4.937H8.562c-.31 0-.562-.224-.562-.5s.252-.5.563-.5h1.874c.311 0 .563.224.563.5s-.252.5-.563.5zm0-2H8.562c-.31 0-.562-.224-.562-.5s.252-.5.563-.5h1.874c.311 0 .563.224.563.5s-.252.5-.563.5zm0-3H8.562C8.252 9 8 8.776 8 8.5s.252-.5.563-.5h1.874c.311 0 .563.224.563.5s-.252.5-.563.5zM12 3.95C12 4.529 11.44 5 10.75 5h-7.5C2.56 5 2 4.529 2 3.95v-.9C2 2.471 2.56 2 3.25 2h7.5c.69 0 1.25.471 1.25 1.05v.9z" transform="translate(-8.000000, -186.000000) translate(8.000000, 66.000000) translate(0.000000, 118.000000) translate(0.000000, 2.000000) translate(5.000000, 4.000000)"/>
                        </g>
                    </g>
                </g>
            </g>
        </g>
    </g>
</svg>
