<svg xmlns="http://www.w3.org/2000/svg" width="24" height="24" viewBox="0 0 24 24">
    <g fill="none" fill-rule="evenodd">
        <g>
            <g>
                <g>
                    <path d="M0 0H24V24H0z" transform="translate(-8.000000, -294.000000) translate(8.000000, 66.000000) translate(0.000000, 228.000000)"/>
                    <g fill="#000" fill-opacity=".1" fill-rule="nonzero">
                        <path d="M3.673 6H.34c-.184 0-.334.138-.334.308v7.384c0 .17.15.308.334.308h3.333c.184 0 .333-.138.333-.308V6.308c0-.17-.148-.308-.333-.308zM8.673 0H5.34c-.184 0-.334.13-.334.292v13.416c0 .161.15.292.334.292h3.333c.184 0 .333-.13.333-.292V.292C9.006.13 8.857 0 8.673 0zM13.673 3H10.34c-.184 0-.334.13-.334.29v10.42c0 .16.15.29.334.29h3.333c.184 0 .333-.13.333-.29V3.29c0-.16-.149-.29-.333-.29z" transform="translate(-8.000000, -294.000000) translate(8.000000, 66.000000) translate(0.000000, 228.000000) translate(5.000000, 5.000000)"/>
                    </g>
                </g>
            </g>
        </g>
    </g>
</svg>
