<svg xmlns="http://www.w3.org/2000/svg" width="24" height="24" viewBox="0 0 24 24">
    <g fill="none" fill-rule="evenodd">
        <g>
            <g>
                <g>
                    <path d="M0 0L24 0 24 24 0 24z" transform="translate(-8.000000, -150.000000) translate(8.000000, 66.000000) translate(0.000000, 84.000000)"/>
                    <g fill="#000" fill-opacity=".1" fill-rule="nonzero">
                        <path d="M10.285 9.295c-.551 0-1 .449-1 1 0 .552.449 1 1 1 .552 0 1-.448 1-1 0-.551-.448-1-1-1zM5.647 4.692c-.552 0-1 .448-1 1 0 .551.448 1 1 1 .551 0 1-.449 1-1 0-.552-.449-1-1-1z" transform="translate(-8.000000, -150.000000) translate(8.000000, 66.000000) translate(0.000000, 84.000000) translate(4.000360, 4.000000)"/>
                        <path d="M8 0C3.59 0 0 3.589 0 8c0 4.412 3.589 8 8 8s8-3.588 8-8c0-4.411-3.589-8-8-8zM5.68 3.753c1.064 0 1.93.866 1.93 1.93s-.866 1.93-1.93 1.93-1.93-.866-1.93-1.93.866-1.93 1.93-1.93zm-.587 7.862c-.097.097-.225.146-.353.146-.128 0-.256-.049-.354-.146-.196-.196-.196-.513 0-.708l6.52-6.52c.196-.196.513-.196.708 0 .196.194.196.511 0 .707l-6.52 6.52zm5.217.627c-1.064 0-1.93-.866-1.93-1.93s.866-1.93 1.93-1.93 1.93.866 1.93 1.93-.867 1.93-1.93 1.93z" transform="translate(-8.000000, -150.000000) translate(8.000000, 66.000000) translate(0.000000, 84.000000) translate(4.000360, 4.000000)"/>
                    </g>
                </g>
            </g>
        </g>
    </g>
</svg>
